<svg width="50" height="50" viewBox="0 0 50 50" fill="none" xmlns="http://www.w3.org/2000/svg">
<path d="M18.5416 18.8542L10.8333 26.4583L6.45829 22.1875L4.16663 24.4792L10.8333 31.1458L20.8333 21.1458L18.5416 18.8542ZM18.5416 5.3125L10.8333 12.9167L6.45829 8.64583L4.16663 10.9375L10.8333 17.6042L20.8333 7.60417L18.5416 5.3125ZM18.5416 32.3958L10.8333 40L6.45829 35.7292L4.16663 38.0208L10.8333 44.6875L20.8333 34.6875L18.5416 32.3958Z" fill="#D81159"/>
<path d="M25 22.9167H45.8333V27.0833H25V22.9167ZM25 9.375H45.8333V13.5417H25V9.375ZM25 36.4583H45.8333V40.625H25V36.4583Z" fill="#006BA6"/>
</svg>
